<svg width="16" height="16" viewBox="0 0 16 16" fill="none" xmlns="http://www.w3.org/2000/svg">
<path d="M12.4384 9.79032C11.9176 9.67912 11.5056 9.91992 11.1408 10.1295C10.7672 10.3447 10.444 10.5319 10.0376 10.3839C7.95198 9.53352 6.46318 8.04392 5.61519 5.96714C5.46559 5.55434 5.65199 5.23034 5.86719 4.85514C6.07679 4.49194 6.31438 4.07835 6.20639 3.55835C6.10799 3.09035 4.60879 1.20476 4.1624 0.767963C3.868 0.480764 3.5664 0.322365 3.2576 0.295965C2.09361 0.247165 0.654414 1.92476 0.425615 2.29355C-0.145582 3.07995 -0.141582 4.12635 0.436015 5.39514C1.82721 8.80312 7.14718 14.1239 10.5936 15.5567C11.2296 15.8527 11.8112 15.9999 12.3336 15.9999C12.8456 15.9999 13.2999 15.8583 13.6911 15.5767C13.9863 15.4087 15.7423 13.9183 15.6999 12.7319C15.6743 12.4295 15.5159 12.1271 15.2287 11.8343C14.7919 11.3871 12.9064 9.88791 12.4384 9.79032Z" fill="#211F26"/>
</svg>
